<svg width="400" height="400" viewBox="0 0 400 400" fill="none" xmlns="http://www.w3.org/2000/svg">
  <defs>
    <linearGradient id="heroGradient1" x1="0%" y1="0%" x2="100%" y2="100%">
      <stop offset="0%" stop-color="#4361ee"/>
      <stop offset="100%" stop-color="#4cc9f0"/>
    </linearGradient>
    <linearGradient id="heroGradient2" x1="0%" y1="0%" x2="100%" y2="100%">
      <stop offset="0%" stop-color="#4cc9f0"/>
      <stop offset="100%" stop-color="#7209b7"/>
    </linearGradient>
  </defs>
  
  <!-- Background elements -->
  <circle cx="320" cy="80" r="40" fill="url(#heroGradient1)" opacity="0.1"/>
  <circle cx="80" cy="320" r="60" fill="url(#heroGradient2)" opacity="0.1"/>
  
  <!-- Main QR Code -->
  <rect x="100" y="100" width="200" height="200" rx="10" fill="white" stroke="url(#heroGradient1)" stroke-width="3"/>
  
  <!-- QR Code pattern -->
  <g fill="url(#heroGradient1)">
    <!-- Corner detection patterns -->
    <rect x="115" y="115" width="35" height="35" rx="2"/>
    <rect x="250" y="115" width="35" height="35" rx="2"/>
    <rect x="115" y="250" width="35" height="35" rx="2"/>
    
    <!-- Inner corner squares -->
    <rect x="122" y="122" width="21" height="21" rx="1" fill="white"/>
    <rect x="257" y="122" width="21" height="21" rx="1" fill="white"/>
    <rect x="122" y="257" width="21" height="21" rx="1" fill="white"/>
    
    <rect x="127" y="127" width="11" height="11" rx="1"/>
    <rect x="262" y="127" width="11" height="11" rx="1"/>
    <rect x="127" y="262" width="11" height="11" rx="1"/>
    
    <!-- Data pattern -->
    <rect x="160" y="120" width="8" height="8" rx="1"/>
    <rect x="175" y="120" width="8" height="8" rx="1"/>
    <rect x="190" y="120" width="8" height="8" rx="1"/>
    <rect x="205" y="120" width="8" height="8" rx="1"/>
    <rect x="220" y="120" width="8" height="8" rx="1"/>
    
    <rect x="160" y="135" width="8" height="8" rx="1"/>
    <rect x="190" y="135" width="8" height="8" rx="1"/>
    <rect x="220" y="135" width="8" height="8" rx="1"/>
    
    <rect x="175" y="150" width="8" height="8" rx="1"/>
    <rect x="205" y="150" width="8" height="8" rx="1"/>
    
    <rect x="160" y="165" width="8" height="8" rx="1"/>
    <rect x="175" y="165" width="8" height="8" rx="1"/>
    <rect x="190" y="165" width="8" height="8" rx="1"/>
    <rect x="205" y="165" width="8" height="8" rx="1"/>
    <rect x="220" y="165" width="8" height="8" rx="1"/>
    
    <rect x="160" y="180" width="8" height="8" rx="1"/>
    <rect x="190" y="180" width="8" height="8" rx="1"/>
    <rect x="220" y="180" width="8" height="8" rx="1"/>
    
    <rect x="175" y="195" width="8" height="8" rx="1"/>
    <rect x="205" y="195" width="8" height="8" rx="1"/>
    
    <rect x="160" y="210" width="8" height="8" rx="1"/>
    <rect x="175" y="210" width="8" height="8" rx="1"/>
    <rect x="190" y="210" width="8" height="8" rx="1"/>
    <rect x="205" y="210" width="8" height="8" rx="1"/>
    <rect x="220" y="210" width="8" height="8" rx="1"/>
    
    <rect x="160" y="225" width="8" height="8" rx="1"/>
    <rect x="190" y="225" width="8" height="8" rx="1"/>
    <rect x="220" y="225" width="8" height="8" rx="1"/>
    
    <rect x="175" y="240" width="8" height="8" rx="1"/>
    <rect x="205" y="240" width="8" height="8" rx="1"/>
    
    <rect x="160" y="255" width="8" height="8" rx="1"/>
    <rect x="175" y="255" width="8" height="8" rx="1"/>
    <rect x="190" y="255" width="8" height="8" rx="1"/>
    <rect x="205" y="255" width="8" height="8" rx="1"/>
    <rect x="220" y="255" width="8" height="8" rx="1"/>
    
    <rect x="160" y="270" width="8" height="8" rx="1"/>
    <rect x="190" y="270" width="8" height="8" rx="1"/>
    <rect x="220" y="270" width="8" height="8" rx="1"/>
  </g>
  
  <!-- Floating elements -->
  <circle cx="340" cy="200" r="6" fill="url(#heroGradient2)"/>
  <circle cx="60" cy="200" r="8" fill="url(#heroGradient1)"/>
  <rect x="350" y="280" width="12" height="12" rx="2" fill="url(#heroGradient2)"/>
  <rect x="30" y="120" width="10" height="10" rx="2" fill="url(#heroGradient1)"/>
  
  <!-- Scan lines effect -->
  <rect x="80" y="150" width="240" height="2" fill="url(#heroGradient2)" opacity="0.3">
    <animate attributeName="y" values="150;250;150" dur="3s" repeatCount="indefinite"/>
  </rect>
</svg>
