<svg width="40" height="40" viewBox="0 0 40 40" fill="none" xmlns="http://www.w3.org/2000/svg">
  <defs>
    <linearGradient id="logoGradient" x1="0%" y1="0%" x2="100%" y2="100%">
      <stop offset="0%" stop-color="#4361ee"/>
      <stop offset="100%" stop-color="#4cc9f0"/>
    </linearGradient>
  </defs>
  
  <!-- Background circle -->
  <circle cx="20" cy="20" r="18" fill="url(#logoGradient)"/>
  
  <!-- QR Code pattern -->
  <g fill="white">
    <!-- Corner squares -->
    <rect x="6" y="6" width="8" height="8" rx="1"/>
    <rect x="26" y="6" width="8" height="8" rx="1"/>
    <rect x="6" y="26" width="8" height="8" rx="1"/>
    
    <!-- Inner corner squares -->
    <rect x="8" y="8" width="4" height="4" rx="0.5"/>
    <rect x="28" y="8" width="4" height="4" rx="0.5"/>
    <rect x="8" y="28" width="4" height="4" rx="0.5"/>
    
    <!-- Pattern dots -->
    <rect x="16" y="7" width="2" height="2" rx="0.5"/>
    <rect x="19" y="7" width="2" height="2" rx="0.5"/>
    <rect x="22" y="7" width="2" height="2" rx="0.5"/>
    
    <rect x="16" y="11" width="2" height="2" rx="0.5"/>
    <rect x="22" y="11" width="2" height="2" rx="0.5"/>
    
    <rect x="16" y="15" width="2" height="2" rx="0.5"/>
    <rect x="19" y="15" width="2" height="2" rx="0.5"/>
    <rect x="22" y="15" width="2" height="2" rx="0.5"/>
    
    <rect x="16" y="19" width="2" height="2" rx="0.5"/>
    <rect x="22" y="19" width="2" height="2" rx="0.5"/>
    
    <rect x="16" y="23" width="2" height="2" rx="0.5"/>
    <rect x="19" y="23" width="2" height="2" rx="0.5"/>
    <rect x="22" y="23" width="2" height="2" rx="0.5"/>
    
    <rect x="16" y="27" width="2" height="2" rx="0.5"/>
    <rect x="19" y="27" width="2" height="2" rx="0.5"/>
    <rect x="22" y="27" width="2" height="2" rx="0.5"/>
    
    <rect x="16" y="31" width="2" height="2" rx="0.5"/>
    <rect x="22" y="31" width="2" height="2" rx="0.5"/>
  </g>
</svg>
